<svg width="226" height="257" viewBox="0 0 226 257" fill="none" xmlns="http://www.w3.org/2000/svg">
<path d="M224 190V61.0002L133.059 4.38241L9.8325 2L8.04433 94.4904L85.7609 95.9929V67.8188L145 129L85.2898 190.668L84.4308 164.787L6.71428 163.285L5 251.953L128.226 254.336L224 190Z" fill="url(#paint0_linear_315_169)"/>
<path d="M85.5 197L84.4308 164.787L6.71428 163.285L5 251.953L128.226 254.336L224 190V61.0002L133.059 4.38241L9.8325 2L8.04433 94.4904L85.7609 95.9929V61.0002M84 192L145 129L84 66.0002" stroke="url(#paint1_linear_315_169)" stroke-width="4" stroke-linejoin="round"/>
<path fill-rule="evenodd" clip-rule="evenodd" d="M21.7268 108.781C19.4566 109.229 15.6478 110.459 13.2624 111.514C8.54146 113.603 0 120.921 0 122.877C0 125.366 10.0293 126.031 19.9571 124.202C24.8527 123.3 26.5151 123.346 28.7532 124.446C32.8712 126.469 33.6985 129.753 30.8176 132.634C28.7034 134.748 27.7278 134.952 20.3405 134.823C13.8156 134.709 11.242 135.111 7.40488 136.842L2.61366 139.001L4.90732 141.443C6.16878 142.785 9.82146 145.193 13.0244 146.794C20.3678 150.463 29.5746 150.779 39.0039 147.684C47.4917 144.897 55.6098 139.434 55.6098 136.507C55.6098 134.807 51.1395 133.123 46.5395 133.091L42.439 133.061L45.7493 130.053C48.8205 127.26 49.4185 127.09 54.042 127.683C68.9951 129.599 69.5805 129.575 72.439 126.922C76.7424 122.928 76.001 121.695 69.0244 121.247C64.0556 120.928 60.7785 119.814 51.32 115.227C36.6693 108.123 31.1512 106.921 21.7268 108.781ZM84.201 124.288C81.9502 125.309 77.5171 127.974 74.3483 130.209C70.0488 133.24 67.56 134.311 64.5424 134.427C59.6673 134.615 59.4615 135.449 63.6585 138.008C69.7561 141.725 77.0556 140.047 86.2166 132.819C88.2937 131.18 92.2449 129.104 94.9971 128.205L100 126.569L96.5854 124.482C92.3971 121.922 89.5122 121.876 84.201 124.288Z" fill="url(#paint2_linear_315_169)"/>
<defs>
<linearGradient id="paint0_linear_315_169" x1="114.5" y1="2" x2="114.5" y2="254.336" gradientUnits="userSpaceOnUse">
<stop stop-color="#DC2626"/>
<stop offset="1" stop-color="#EA580C"/>
</linearGradient>
<linearGradient id="paint1_linear_315_169" x1="114.5" y1="2" x2="114.5" y2="254.336" gradientUnits="userSpaceOnUse">
<stop stop-color="#DC2626"/>
<stop offset="1" stop-color="#EA580C"/>
</linearGradient>
<linearGradient id="paint2_linear_315_169" x1="50" y1="108" x2="50" y2="149.796" gradientUnits="userSpaceOnUse">
<stop stop-color="#DC2626"/>
<stop offset="1" stop-color="#EA580C"/>
</linearGradient>
</defs>
</svg>
